<svg width="75" height="50" viewBox="0 0 75 50" fill="none" xmlns="http://www.w3.org/2000/svg">
<ellipse cx="37.5" cy="29.75" rx="37.5" ry="20.25" fill="#D0EBFF"/>
<ellipse cx="37.25" cy="28.75" rx="30.25" ry="15.75" fill="#B3DEFF"/>
<path d="M37.5001 18.5C38.348 18.5 39.0741 18.1979 39.6785 17.5935C40.2828 16.9892 40.5844 16.2636 40.5834 15.4167C40.5834 14.5688 40.2812 13.8427 39.6769 13.2383C39.0726 12.634 38.347 12.3323 37.5001 12.3334C36.6522 12.3334 35.926 12.6355 35.3217 13.2399C34.7174 13.8442 34.4157 14.5698 34.4167 15.4167C34.4167 16.2646 34.7189 16.9907 35.3232 17.5951C35.9276 18.1994 36.6532 18.5011 37.5001 18.5ZM37.5001 33.9167C33.3633 30.3965 30.2738 27.1272 28.2316 24.1086C26.1894 21.09 25.1678 18.2955 25.1667 15.725C25.1667 11.8709 26.4068 8.80038 28.8868 6.51358C31.3668 4.22678 34.2379 3.08337 37.5001 3.08337C40.7633 3.08337 43.6349 4.22678 46.1149 6.51358C48.5949 8.80038 49.8344 11.8709 49.8334 15.725C49.8334 18.2945 48.8118 21.089 46.7686 24.1086C44.7254 27.1282 41.6359 30.3976 37.5001 33.9167Z" fill="#2C2E80"/>
</svg>
