<svg width="508" height="121" viewBox="0 0 508 121" fill="none" xmlns="http://www.w3.org/2000/svg">
<g clip-path="url(#clip0_20_102)">
<path d="M186.262 112.571V95.9934C186.262 95.3452 186.535 95.0952 187.158 95.0952H196.492C197.115 95.0952 197.364 95.3452 197.364 95.9934V97.3681C197.364 97.993 197.115 98.2663 196.492 98.2663H189.697V103.535H195.297C195.943 103.535 196.192 103.785 196.192 104.433V105.757C196.192 106.382 195.943 106.655 195.297 106.655H189.697V112.571C189.697 113.22 189.448 113.47 188.825 113.47H187.158C186.535 113.47 186.262 113.22 186.262 112.571Z" fill="white"/>
<path d="M211.212 112.571V107.752C208.322 104.031 205.285 97.7664 205.285 95.8177C205.285 95.3178 205.557 95.0952 206.157 95.0952H207.898C208.521 95.0952 208.72 95.271 208.941 95.9427C209.786 98.938 210.982 101.586 212.999 104.831C215.04 101.535 216.212 98.8873 217.057 95.9427C217.279 95.267 217.481 95.0952 218.1 95.0952H219.67C220.293 95.0952 220.542 95.3178 220.542 95.8177C220.542 97.7664 217.505 104.031 214.642 107.752V112.571C214.642 113.196 214.37 113.47 213.747 113.47H212.08C211.461 113.47 211.212 113.22 211.212 112.571Z" fill="white"/>
<path d="M229.07 113.021C228.521 112.845 228.35 112.595 228.35 112.048V110.599C228.35 109.924 228.649 109.674 229.393 109.924C230.437 110.322 232.158 110.646 233.474 110.646C235.639 110.646 236.687 109.873 236.687 108.475C236.687 107.377 236.013 106.604 234 105.804L232.555 105.229C229.568 104.03 228.548 102.359 228.548 99.9377C228.548 96.5909 231.111 94.8179 235.145 94.8179C237.037 94.8179 238.482 95.267 239.327 95.5911C239.923 95.8137 240.098 96.1144 239.95 96.7393L239.65 98.0358C239.502 98.6334 239.202 98.7583 238.556 98.5357C237.61 98.235 236.442 97.9109 235.094 97.9109C233.225 97.9109 232.158 98.5865 232.158 99.9573C232.158 101.105 232.832 101.879 234.845 102.679L236.29 103.253C239.276 104.452 240.297 106.026 240.297 108.522C240.297 112.068 237.384 113.739 233.428 113.739C231.687 113.743 230.044 113.419 229.07 113.021Z" fill="white"/>
<path d="M249.479 112.571V95.9934C249.479 95.3452 249.752 95.0952 250.375 95.0952H252.041C252.664 95.0952 252.914 95.3452 252.914 95.9934V112.571C252.914 113.22 252.664 113.47 252.041 113.47H250.375C249.752 113.47 249.479 113.22 249.479 112.571Z" fill="white"/>
<path d="M262.489 104.28C262.489 97.6375 264.705 94.8179 269.931 94.8179C275.184 94.8179 277.399 97.6375 277.399 104.28C277.399 110.923 275.184 113.743 269.931 113.743C264.705 113.743 262.489 110.923 262.489 104.28ZM273.84 104.28C273.84 99.6878 272.797 98.0398 269.931 98.0398C267.092 98.0398 266.048 99.6878 266.048 104.28C266.048 108.873 267.092 110.521 269.931 110.521C272.793 110.525 273.84 108.877 273.84 104.28Z" fill="white"/>
<path d="M290.262 112.571V98.2663H286.153C285.53 98.2663 285.258 97.993 285.258 97.3681V95.9934C285.258 95.3452 285.53 95.0952 286.153 95.0952H297.828C298.451 95.0952 298.724 95.3452 298.724 95.9934V97.3681C298.724 97.993 298.451 98.2663 297.828 98.2663H293.72V112.571C293.72 113.22 293.447 113.47 292.824 113.47H291.157C290.534 113.47 290.262 113.22 290.262 112.571Z" fill="#847CB5"/>
<path d="M307.384 112.571V95.9934C307.384 95.3452 307.657 95.0952 308.28 95.0952H309.946C310.569 95.0952 310.819 95.3452 310.819 95.9934V102.636H317.766V95.9934C317.766 95.3452 318.038 95.0952 318.661 95.0952H320.328C320.951 95.0952 321.2 95.3452 321.2 95.9934V112.571C321.2 113.22 320.951 113.47 320.328 113.47H318.661C318.038 113.47 317.766 113.22 317.766 112.571V105.807H310.819V112.571C310.819 113.22 310.569 113.47 309.946 113.47H308.28C307.657 113.47 307.384 113.22 307.384 112.571Z" fill="#847CB5"/>
<path d="M331.317 112.571V95.9934C331.317 95.3452 331.59 95.0952 332.213 95.0952H342.096C342.719 95.0952 342.992 95.3452 342.992 95.9934V97.3681C342.992 97.993 342.719 98.2663 342.096 98.2663H334.752V102.711H341.048C341.695 102.711 341.944 102.961 341.944 103.609V104.882C341.944 105.507 341.695 105.78 341.048 105.78H334.752V110.299H342.096C342.719 110.299 342.992 110.572 342.992 111.197V112.571C342.992 113.22 342.719 113.47 342.096 113.47H332.213C331.594 113.47 331.317 113.22 331.317 112.571Z" fill="#847CB5"/>
<path d="M361.859 112.595C360.94 110.299 360.239 109.174 358.77 107.127H355.71V112.571C355.71 113.196 355.46 113.47 354.837 113.47H353.171C352.548 113.47 352.275 113.22 352.275 112.571V95.9934C352.275 95.3452 352.548 95.0952 353.171 95.0952H358.475C363.354 95.0952 365.819 97.1182 365.819 101.137C365.819 103.933 364.6 105.757 362.186 106.604C363.63 108.451 364.701 110.174 365.523 112.247C365.823 112.997 365.523 113.47 364.775 113.47H363.109C362.454 113.47 362.108 113.22 361.859 112.595ZM358.471 104.183C361.01 104.183 362.256 103.21 362.256 101.164C362.256 99.1411 361.01 98.1414 358.471 98.1414H355.706V104.183H358.471Z" fill="#847CB5"/>
<path d="M374.125 112.669C374.125 110.72 377.486 99.6137 379.826 95.7904C380.099 95.3647 380.348 95.0913 381.095 95.0913H382.665C383.412 95.0913 383.662 95.3647 383.934 95.7904C386.275 99.6098 389.635 110.72 389.635 112.669C389.635 113.267 389.335 113.47 388.837 113.47H387.12C386.372 113.47 386.076 113.22 385.975 112.622C385.776 111.576 385.527 110.4 385.227 109.252H378.405C378.105 110.451 377.832 111.599 377.657 112.622C377.556 113.22 377.26 113.47 376.512 113.47H374.943C374.425 113.47 374.125 113.271 374.125 112.669ZM384.53 106.354C383.708 103.507 382.711 100.66 381.816 98.5397C380.893 100.688 379.923 103.558 379.102 106.354H384.53Z" fill="#847CB5"/>
<path d="M398.424 112.571V95.9934C398.424 95.3452 398.697 95.0952 399.32 95.0952H404.25C409.129 95.0952 411.695 97.29 411.695 101.488C411.695 105.683 409.133 107.881 404.25 107.881H401.859V112.575C401.859 113.2 401.609 113.474 400.986 113.474H399.32C398.697 113.47 398.424 113.22 398.424 112.571ZM404.347 104.831C406.863 104.831 408.105 103.706 408.105 101.484C408.105 99.2856 406.859 98.1374 404.347 98.1374H401.859V104.827H404.347V104.831Z" fill="#847CB5"/>
<path d="M420.675 112.571V95.9934C420.675 95.3452 420.948 95.0952 421.571 95.0952H423.237C423.86 95.0952 424.11 95.3452 424.11 95.9934V112.571C424.11 113.22 423.86 113.47 423.237 113.47H421.571C420.952 113.47 420.675 113.22 420.675 112.571Z" fill="#847CB5"/>
<path d="M434.191 112.571V95.9934C434.191 95.3452 434.464 95.0952 435.087 95.0952H444.97C445.593 95.0952 445.866 95.3452 445.866 95.9934V97.3681C445.866 97.993 445.593 98.2663 444.97 98.2663H437.626V102.711H443.927C444.573 102.711 444.822 102.961 444.822 103.609V104.882C444.822 105.507 444.573 105.78 443.927 105.78H437.63V110.299H444.974C445.597 110.299 445.87 110.572 445.87 111.197V112.571C445.87 113.22 445.597 113.47 444.974 113.47H435.091C434.464 113.47 434.191 113.22 434.191 112.571Z" fill="#847CB5"/>
<path d="M210.869 78.7864V35.5273C210.869 33.8324 211.586 33.1802 213.209 33.1802H225.877C237.699 33.1802 243.677 37.8041 243.677 46.4699C243.677 51.4219 241.531 54.8742 237.442 56.8932C242.509 58.717 244.978 62.3645 244.978 67.8398C244.978 76.5057 238.938 81.1296 227.178 81.1296H213.209C211.586 81.1296 210.869 80.4774 210.869 78.7864ZM225.943 53.8314C231.465 53.8314 234.323 51.6171 234.323 47.1221C234.323 42.6271 231.465 40.4128 225.943 40.4128H219.837V53.8314H225.943ZM227.24 73.8969C232.762 73.8969 235.62 71.6826 235.62 67.1876C235.62 62.6926 232.762 60.4783 227.24 60.4783H219.833V73.8969H227.24Z" fill="white"/>
<path d="M251.551 67.1212V47.5126C251.551 45.8841 252.267 45.1655 253.891 45.1655H257.918C259.608 45.1655 260.258 45.8841 260.258 47.5126V66.3401C260.258 72.0067 262.01 74.3538 266.169 74.3538C268.51 74.3538 271.302 73.3775 273.186 71.749V47.5126C273.186 45.8841 273.903 45.1655 275.527 45.1655H279.619C281.243 45.1655 281.894 45.8841 281.894 47.5126V78.7824C281.894 80.4773 281.243 81.1295 279.619 81.1295H276.438C274.814 81.1295 274.164 80.4773 274.164 78.8488V78.0677C271.566 80.4148 267.341 81.8481 263.576 81.8481C255.515 81.8481 251.551 77.025 251.551 67.1212Z" fill="white"/>
<path d="M289.814 78.7864V47.5166C289.814 45.8881 290.527 45.1695 292.155 45.1695H295.274C296.964 45.1695 297.614 45.8217 297.614 47.4502V48.2313C300.211 45.9506 304.437 44.4509 308.397 44.4509C316.648 44.4509 320.675 49.2701 320.675 59.1739V78.7825C320.675 80.4774 320.025 81.1296 318.335 81.1296H314.308C312.618 81.1296 311.968 80.4774 311.968 78.7825V59.955C311.968 54.3509 310.149 51.9413 305.928 51.9413C303.393 51.9413 300.535 52.9176 298.521 54.6125V78.7825C298.521 80.4774 297.871 81.1296 296.181 81.1296H292.155C290.527 81.1296 289.814 80.4774 289.814 78.7864Z" fill="white"/>
<path d="M326.96 63.997C326.96 51.4219 332.743 44.4509 343.265 44.4509C345.862 44.4509 348.463 45.0367 350.282 45.8178V35.5273C350.282 33.8324 350.998 33.1802 352.622 33.1802H356.715C358.339 33.1802 358.989 33.8324 358.989 35.5273V78.7864C358.989 80.4813 358.339 81.1335 356.715 81.1335H353.533C351.909 81.1335 351.259 80.4813 351.259 78.7864V78.0678C349.18 80.2821 345.282 81.8481 341.06 81.8481C331.96 81.8481 326.96 75.463 326.96 63.997ZM350.282 71.8154V53.5737C348.658 52.531 346.839 51.9452 344.565 51.9452C338.654 51.9452 335.796 55.8544 335.796 63.8681C335.796 70.9055 338.136 74.3577 343.07 74.3577C345.667 74.3538 348.525 73.3111 350.282 71.8154Z" fill="white"/>
<path d="M365.527 63.4737C365.527 51.0939 371.505 44.4509 382.677 44.4509C391.38 44.4509 396.84 48.7507 396.84 55.5264C396.84 61.9116 392.813 65.1686 384.69 65.7544L374.491 66.473C374.947 71.8818 377.739 74.3578 383.977 74.3578C386.836 74.3578 389.889 73.772 392.681 72.6629C394.565 71.8818 395.8 72.3387 395.8 74.0297V77.0251C395.8 78.392 395.149 79.3722 393.72 79.958C391.318 81.0007 386.703 81.8482 382.938 81.8482C371.115 81.8482 365.527 75.9824 365.527 63.4737ZM381.571 59.8925C386.181 59.5684 388.393 58.3304 388.393 55.5264C388.393 52.7888 386.185 51.2266 382.548 51.2266C377.482 51.2266 374.624 54.4837 374.429 60.4119L381.571 59.8925Z" fill="white"/>
<path d="M402.836 71.2921V35.5273C402.836 33.8324 403.549 33.1802 405.177 33.1802H409.203C410.893 33.1802 411.544 33.8324 411.544 35.5273V70.3821C411.544 73.1198 412.517 74.2914 414.725 74.2914C415.504 74.2914 415.893 74.1625 416.283 74.1625C417.517 74.1625 417.973 74.7483 417.973 76.1815V78.7239C417.973 80.2235 417.322 80.9382 415.699 81.3287C414.725 81.5904 413.491 81.6529 412.385 81.6529C405.695 81.6529 402.836 78.5872 402.836 71.2921Z" fill="white"/>
<path d="M422.599 78.7863V49.4028C422.599 47.9695 423.378 47.3173 424.873 47.5126C425.652 47.6415 426.236 47.7079 426.952 47.7079C427.669 47.7079 428.253 47.6415 429.032 47.5126C430.527 47.3173 431.306 47.9695 431.306 49.4028V78.7863C431.306 80.4812 430.656 81.1334 428.966 81.1334H424.939C423.312 81.1295 422.599 80.4773 422.599 78.7863Z" fill="white"/>
<path d="M432.665 38.3938C432.665 41.7133 430.656 43.541 426.948 43.541C423.249 43.541 421.236 41.7133 421.236 38.3938C421.236 35.1368 423.245 33.313 426.948 33.313C430.652 33.313 432.665 35.1368 432.665 38.3938Z" fill="#1E9A98"/>
<path d="M439.11 78.7864V47.5166C439.11 45.8881 439.826 45.1695 441.45 45.1695H444.569C446.259 45.1695 446.91 45.8217 446.91 47.4502V48.2313C449.507 45.9506 453.732 44.4509 457.692 44.4509C465.944 44.4509 469.971 49.2701 469.971 59.1739V78.7825C469.971 80.4774 469.32 81.1296 467.63 81.1296H463.604C461.914 81.1296 461.263 80.4774 461.263 78.7825V59.955C461.263 54.3509 459.445 51.9413 455.224 51.9413C452.689 51.9413 449.83 52.9176 447.817 54.6125V78.7825C447.817 80.4774 447.167 81.1296 445.477 81.1296H441.45C439.822 81.1296 439.11 80.4774 439.11 78.7864Z" fill="white"/>
<path d="M479.426 91.2286C478.125 90.7092 477.607 89.9907 477.607 88.6238V85.6284C477.607 83.6094 478.647 83.2813 480.66 84.0663C483.647 85.1754 486.7 85.8237 489.363 85.8237C494.367 85.8237 497.615 83.2813 497.615 80.0907C497.615 78.4622 496.965 76.7673 495.796 75.2052C494.434 75.7246 492.615 75.9862 490.73 75.9862C480.792 75.9862 475.333 70.5149 475.333 60.2869C475.333 49.9925 480.789 44.4548 490.73 44.4548C493.328 44.4548 495.668 44.9742 497.615 45.888C499.11 44.2595 499.955 42.1077 499.955 39.1123C499.955 37.7454 500.411 37.0933 501.969 37.0933H505.933C507.49 37.0933 507.946 37.6791 507.946 39.2451C507.946 42.5685 506.061 47.0635 503.075 49.6684C505.022 52.2732 506.061 55.8583 506.061 60.2869C506.061 64.9772 504.761 68.82 502.292 71.4287C505.022 74.5569 506.451 77.9428 506.451 81.1998C506.451 87.9091 500.539 93.1852 490.536 93.1852C486.571 93.1813 482.218 92.4666 479.426 91.2286ZM497.681 60.283C497.681 54.3547 495.341 51.5546 490.73 51.5546C485.987 51.5546 483.713 54.3547 483.713 60.283C483.713 66.2112 485.987 68.8825 490.73 68.8825C495.341 68.8825 497.681 66.2112 497.681 60.283Z" fill="white"/>
<path d="M124.187 64.1336C124.187 51.5468 129.65 44.8297 139.989 44.8297C142.785 44.8297 145.581 45.353 147.532 46.2005V34.9141C147.532 33.6097 148.053 33.0864 149.354 33.0864H151.177C152.477 33.0864 152.999 33.6097 152.999 34.9141V79.2628C152.999 80.5672 152.477 81.0905 151.177 81.0905H149.81C148.509 81.0905 147.987 80.5672 147.987 79.2628V78.1537C145.775 80.3055 141.745 81.7427 137.648 81.7427C128.801 81.7427 124.187 75.6777 124.187 64.1336ZM147.532 73.7875V51.2227C145.581 50.18 143.24 49.6566 140.701 49.6566C133.287 49.6566 129.775 54.2883 129.775 64.1375C129.775 72.8112 132.637 76.9196 138.75 76.9196C141.94 76.9157 145.386 75.6777 147.532 73.7875Z" fill="#847CB5"/>
<path d="M159.888 63.743C159.888 51.4178 165.417 44.8296 175.756 44.8296C183.626 44.8296 188.502 48.8091 188.502 55.2646C188.502 61.1342 184.405 64.5241 176.663 65.1138L165.542 65.8948C165.998 73.5922 169.249 76.8531 176.597 76.8531C179.459 76.8531 182.189 76.3298 185.118 75.1582C186.613 74.5724 187.396 75.0293 187.396 76.3337V78.095C187.396 78.9425 187.072 79.5282 186.29 79.9227C184.339 80.9029 179.72 81.7504 176.146 81.7504C165.156 81.7426 159.888 75.9393 159.888 63.743ZM174.779 61.0679C180.437 60.6773 183.038 58.916 183.038 55.2646C183.038 51.4803 180.371 49.3285 175.69 49.3285C169.253 49.3285 165.608 53.7649 165.48 61.72L174.779 61.0679Z" fill="#847CB5"/>
<path d="M110.503 123.03C108.334 126.783 103.006 126.552 99.6108 123.811C107.788 121.249 110.397 112.661 111.636 106.448C111.636 106.448 115.051 115.168 110.503 123.03Z" fill="white"/>
<path d="M108.279 73.6196C108.318 84.863 104.615 96.1611 92.0643 103.843C78.1702 112.349 62.3251 111.271 56.6709 101.425C55.6546 99.6641 55.0432 97.7466 54.7979 95.7276C62.2122 101.222 75.4833 101.312 88.069 95.1769C98.7232 89.979 106.138 81.645 108.279 73.6196Z" fill="white"/>
<path d="M76.6705 79.3098C86.69 76.3223 94.0421 71.6047 98.4774 68.2461C104.12 63.9737 108.166 59.5333 110.896 56.0928C109.498 69.9683 96.6199 85.0467 76.2227 90.5766C51.5147 97.2821 26.6781 91.5608 20.5877 77.3845C19.8596 75.6896 19.4351 73.9596 19.291 72.2061C25.3424 75.5842 33.9133 79.3255 44.6533 81.0477C61.3394 83.7228 74.1549 80.0636 76.6705 79.3098Z" fill="#1E9A98"/>
<path d="M101.632 115.77C94.6614 121.62 85.7867 120.87 80.3506 114.532C84.4394 114.906 88.9526 114.016 93.3218 111.681C102.27 106.897 107.376 99.6562 108.898 91.502C110.101 100.742 108.408 110.087 101.632 115.77Z" fill="#1E9A98"/>
<path d="M111.258 44.1933C112.676 41.9087 113.688 39.3819 114.148 36.7263C114.151 36.7107 114.151 36.699 114.155 36.6834C114.37 35.7422 114.533 34.7346 114.615 33.6607C114.697 32.5555 114.681 31.5166 114.603 30.5364C114.603 30.4974 114.603 30.4583 114.603 30.4232C114.599 30.4271 114.599 30.4271 114.595 30.431C114.424 28.369 113.972 26.5999 113.489 25.2291C113.264 24.4676 112.948 23.7138 112.539 22.964C112.535 22.9523 112.528 22.9406 112.524 22.9328C112.271 22.468 111.982 22.0072 111.659 21.5503C111.651 21.5386 111.644 21.5269 111.636 21.5151C109.151 18.0316 104.63 14.7472 98.065 11.994C76.9395 3.13676 42.6559 3.13676 21.5304 11.994C8.78508 17.3404 3.19316 25.1627 6.77572 32.5672C10.5647 40.3817 24.2991 47.0207 43.3374 48.5399C56.6084 49.5943 72.2199 47.8565 81.9084 43.8027C94.1008 38.6868 96.336 30.4817 86.2775 24.284C77.8235 19.0782 61.7525 17.313 48.5009 19.8241C46.916 20.1249 45.3779 20.4841 43.8864 20.9098C38.2361 22.5149 34.4277 24.9557 33.1426 27.7675C32.3677 29.4742 32.5858 31.1964 33.7306 32.8132C34.6574 34.1176 38.1193 34.9377 41.293 34.5003C45.6738 33.895 49.3537 33.3209 52.4651 31.7939C55.5999 30.2552 57.3133 28.1151 57.0446 26.0883C56.8616 24.7097 59.4862 23.5264 62.765 23.6514C68.1505 23.8583 73.2907 25.0377 76.5657 27.0568C84.3032 31.8134 81.3437 38.3275 69.9847 41.565C55.3039 45.7515 34.6652 44.1152 24.6652 37.9565C18.2945 34.0317 15.9658 29.3062 18.0881 24.6433C20.2026 20.0077 26.5032 16.0009 35.8062 13.3609C57.8623 7.10456 81.6747 10.8497 95.4832 17.3326C96.4684 17.7934 97.4147 18.2737 98.3181 18.7736C102.695 21.1832 105.608 25.686 105.834 30.6848C105.841 30.8801 105.849 31.0792 105.849 31.2784C105.861 33.153 105.534 34.8283 105.043 36.285C103.996 39.3897 101.947 42.0688 99.3072 44.0019C90.121 50.723 79.4317 55.1242 68.1505 56.702C68.0493 56.7176 67.9481 56.7293 67.8429 56.7449C63.2635 57.3698 46.3903 59.3107 25.9541 52.7615C14.4821 49.0749 5.75547 43.9551 0 39.999C0.447821 42.885 1.50312 47.1965 4.2835 51.586C6.067 54.4018 10.1675 59.7755 21.289 64.6024C21.289 64.6024 23.6644 65.6764 26.0632 66.4809C30.4557 68.0469 70.1093 81.5202 98.3064 58.9202C103.879 54.4486 108.081 49.3092 111.258 44.1933Z" fill="white"/>
</g>
<defs>
<clipPath id="clip0_20_102">
<rect width="507.942" height="120.51" fill="white" transform="translate(0 0.351074)"/>
</clipPath>
</defs>
</svg>
