<svg width="683" height="190" viewBox="0 0 683 190" xmlns="http://www.w3.org/2000/svg">
<path d="M-0.12589 94.9769C-0.142413 107.318 8.66237 119.55 25.7857 130.975C42.9091 142.4 68.0158 152.793 99.6721 161.562C131.329 170.331 168.915 177.304 210.285 182.082C251.655 186.86 295.998 189.35 340.784 189.41C385.569 189.47 429.919 187.099 471.302 182.432C512.685 177.764 550.29 170.892 581.969 162.208C613.649 153.524 638.783 143.198 655.937 131.819C673.091 120.44 681.929 108.231 681.945 95.8901L340.91 95.4335L-0.12589 94.9769Z" fill="white"/>
<g clip-path="url(#clip0_14_457)">
<path d="M258.765 116.873V98.9154C258.765 98.2131 259.06 97.9424 259.735 97.9424H269.846C270.521 97.9424 270.791 98.2131 270.791 98.9154V100.404C270.791 101.081 270.521 101.377 269.846 101.377H262.485V107.084H268.551C269.251 107.084 269.521 107.355 269.521 108.057V109.491C269.521 110.168 269.251 110.464 268.551 110.464H262.485V116.873C262.485 117.575 262.215 117.846 261.54 117.846H259.735C259.06 117.846 258.765 117.575 258.765 116.873Z" fill="#2E3080"/>
<path d="M285.791 116.873V111.653C282.661 107.621 279.371 100.836 279.371 98.725C279.371 98.1835 279.666 97.9424 280.316 97.9424H282.201C282.876 97.9424 283.091 98.1327 283.332 98.8604C284.247 102.105 285.542 104.973 287.727 108.489C289.937 104.918 291.207 102.05 292.122 98.8604C292.363 98.1285 292.582 97.9424 293.253 97.9424H294.953C295.628 97.9424 295.898 98.1835 295.898 98.725C295.898 100.836 292.608 107.621 289.507 111.653V116.873C289.507 117.55 289.212 117.846 288.537 117.846H286.732C286.061 117.846 285.791 117.575 285.791 116.873Z" fill="#2E3080"/>
<path d="M305.136 117.36C304.541 117.169 304.355 116.899 304.355 116.306V114.737C304.355 114.005 304.68 113.734 305.486 114.005C306.616 114.437 308.481 114.788 309.906 114.788C312.252 114.788 313.386 113.95 313.386 112.436C313.386 111.247 312.657 110.409 310.476 109.542L308.911 108.92C305.676 107.621 304.57 105.811 304.57 103.188C304.57 99.5627 307.346 97.6421 311.716 97.6421C313.766 97.6421 315.331 98.1286 316.246 98.4797C316.892 98.7208 317.082 99.0466 316.921 99.7234L316.596 101.128C316.436 101.775 316.111 101.911 315.411 101.669C314.386 101.344 313.121 100.993 311.661 100.993C309.636 100.993 308.481 101.724 308.481 103.209C308.481 104.453 309.21 105.291 311.391 106.158L312.956 106.78C316.191 108.078 317.297 109.783 317.297 112.486C317.297 116.328 314.141 118.138 309.856 118.138C307.97 118.142 306.19 117.791 305.136 117.36Z" fill="#2E3080"/>
<path d="M327.243 116.873V98.9154C327.243 98.2131 327.538 97.9424 328.213 97.9424H330.019C330.694 97.9424 330.964 98.2131 330.964 98.9154V116.873C330.964 117.575 330.694 117.846 330.019 117.846H328.213C327.538 117.846 327.243 117.575 327.243 116.873Z" fill="#2E3080"/>
<path d="M341.336 107.892C341.336 100.696 343.736 97.6421 349.397 97.6421C355.088 97.6421 357.488 100.696 357.488 107.892C357.488 115.088 355.088 118.142 349.397 118.142C343.736 118.142 341.336 115.088 341.336 107.892ZM353.632 107.892C353.632 102.917 352.502 101.132 349.397 101.132C346.322 101.132 345.192 102.917 345.192 107.892C345.192 112.867 346.322 114.652 349.397 114.652C352.498 114.657 353.632 112.871 353.632 107.892Z" fill="#2E3080"/>
<path d="M371.42 116.873V101.377H366.97C366.295 101.377 366 101.081 366 100.404V98.9154C366 98.2131 366.295 97.9424 366.97 97.9424H379.616C380.291 97.9424 380.586 98.2131 380.586 98.9154V100.404C380.586 101.081 380.291 101.377 379.616 101.377H375.166V116.873C375.166 117.575 374.871 117.846 374.196 117.846H372.39C371.716 117.846 371.42 117.575 371.42 116.873Z" fill="#847CB5"/>
<path d="M389.968 116.873V98.9154C389.968 98.2131 390.263 97.9424 390.938 97.9424H392.743C393.418 97.9424 393.688 98.2131 393.688 98.9154V106.111H401.214V98.9154C401.214 98.2131 401.509 97.9424 402.184 97.9424H403.989C404.664 97.9424 404.934 98.2131 404.934 98.9154V116.873C404.934 117.575 404.664 117.846 403.989 117.846H402.184C401.509 117.846 401.214 117.575 401.214 116.873V109.546H393.688V116.873C393.688 117.575 393.418 117.846 392.743 117.846H390.938C390.263 117.846 389.968 117.575 389.968 116.873Z" fill="#847CB5"/>
<path d="M415.893 116.873V98.9154C415.893 98.2131 416.188 97.9424 416.863 97.9424H427.569C428.244 97.9424 428.539 98.2131 428.539 98.9154V100.404C428.539 101.081 428.244 101.377 427.569 101.377H419.613V106.192H426.434C427.134 106.192 427.404 106.462 427.404 107.165V108.544C427.404 109.22 427.134 109.517 426.434 109.517H419.613V114.411H427.569C428.244 114.411 428.539 114.707 428.539 115.384V116.873C428.539 117.575 428.244 117.846 427.569 117.846H416.863C416.192 117.846 415.893 117.575 415.893 116.873Z" fill="#847CB5"/>
<path d="M448.976 116.899C447.981 114.411 447.221 113.193 445.631 110.976H442.316V116.873C442.316 117.55 442.046 117.846 441.371 117.846H439.565C438.89 117.846 438.595 117.575 438.595 116.873V98.9154C438.595 98.2131 438.89 97.9424 439.565 97.9424H445.311C450.596 97.9424 453.266 100.134 453.266 104.487C453.266 107.516 451.946 109.491 449.331 110.409C450.895 112.41 452.055 114.276 452.946 116.522C453.27 117.334 452.946 117.846 452.136 117.846H450.33C449.622 117.846 449.246 117.575 448.976 116.899ZM445.306 107.786C448.057 107.786 449.406 106.733 449.406 104.516C449.406 102.325 448.057 101.242 445.306 101.242H442.311V107.786H445.306Z" fill="#847CB5"/>
<path d="M462.263 116.979C462.263 114.868 465.904 102.837 468.439 98.6955C468.734 98.2344 469.004 97.9382 469.814 97.9382H471.514C472.324 97.9382 472.594 98.2344 472.889 98.6955C475.424 102.833 479.065 114.868 479.065 116.979C479.065 117.626 478.74 117.846 478.2 117.846H476.34C475.53 117.846 475.209 117.575 475.099 116.928C474.884 115.795 474.614 114.521 474.29 113.277H466.899C466.574 114.576 466.279 115.82 466.089 116.928C465.98 117.575 465.659 117.846 464.849 117.846H463.149C462.588 117.846 462.263 117.63 462.263 116.979ZM473.535 110.139C472.644 107.055 471.565 103.971 470.594 101.674C469.595 104 468.544 107.11 467.654 110.139H473.535Z" fill="#847CB5"/>
<path d="M488.585 116.873V98.9154C488.585 98.2131 488.88 97.9424 489.555 97.9424H494.895C500.181 97.9424 502.961 100.32 502.961 104.867C502.961 109.411 500.185 111.793 494.895 111.793H492.305V116.877C492.305 117.554 492.035 117.85 491.361 117.85H489.555C488.88 117.846 488.585 117.575 488.585 116.873ZM495.001 108.489C497.726 108.489 499.071 107.27 499.071 104.863C499.071 102.482 497.722 101.238 495.001 101.238H492.305V108.484H495.001V108.489Z" fill="#847CB5"/>
<path d="M512.688 116.873V98.9154C512.688 98.2131 512.983 97.9424 513.658 97.9424H515.463C516.138 97.9424 516.408 98.2131 516.408 98.9154V116.873C516.408 117.575 516.138 117.846 515.463 117.846H513.658C512.987 117.846 512.688 117.575 512.688 116.873Z" fill="#847CB5"/>
<path d="M527.329 116.873V98.9154C527.329 98.2131 527.624 97.9424 528.299 97.9424H539.005C539.68 97.9424 539.975 98.2131 539.975 98.9154V100.404C539.975 101.081 539.68 101.377 539.005 101.377H531.049V106.192H537.874C538.575 106.192 538.845 106.462 538.845 107.165V108.544C538.845 109.22 538.575 109.517 537.874 109.517H531.054V114.411H539.009C539.684 114.411 539.979 114.707 539.979 115.384V116.873C539.979 117.575 539.684 117.846 539.009 117.846H528.303C527.624 117.846 527.329 117.575 527.329 116.873Z" fill="#847CB5"/>
<path d="M285.42 80.2765V33.4169C285.42 31.581 286.196 30.8745 287.955 30.8745H301.677C314.483 30.8745 320.958 35.8832 320.958 45.2704C320.958 50.6345 318.634 54.3741 314.205 56.5612C319.693 58.5367 322.367 62.4879 322.367 68.4188C322.367 77.806 315.824 82.8147 303.085 82.8147H287.955C286.196 82.8147 285.42 82.1082 285.42 80.2765ZM301.748 53.2446C307.73 53.2446 310.826 50.846 310.826 45.9768C310.826 41.1077 307.73 38.7091 301.748 38.7091H295.134V53.2446H301.748ZM303.153 74.9801C309.134 74.9801 312.231 72.5815 312.231 67.7124C312.231 62.8432 309.134 60.4446 303.153 60.4446H295.13V74.9801H303.153Z" fill="#2E3080"/>
<path d="M329.487 67.6404V46.3999C329.487 44.6358 330.263 43.8574 332.022 43.8574H336.384C338.215 43.8574 338.919 44.6358 338.919 46.3999V66.7944C338.919 72.9326 340.817 75.475 345.322 75.475C347.858 75.475 350.882 74.4174 352.924 72.6534V46.3999C352.924 44.6358 353.7 43.8574 355.459 43.8574H359.892C361.651 43.8574 362.356 44.6358 362.356 46.3999V80.2722C362.356 82.1082 361.651 82.8147 359.892 82.8147H356.446C354.687 82.8147 353.982 82.1082 353.982 80.3442V79.4981C351.169 82.0405 346.592 83.5931 342.513 83.5931C333.781 83.5931 329.487 78.3686 329.487 67.6404Z" fill="#2E3080"/>
<path d="M370.935 80.2765V46.4041C370.935 44.64 371.707 43.8616 373.47 43.8616H376.849C378.68 43.8616 379.384 44.5681 379.384 46.3322V47.1782C382.198 44.7077 386.775 43.0833 391.065 43.0833C400.003 43.0833 404.365 48.3035 404.365 59.0317V80.2722C404.365 82.1082 403.66 82.8147 401.829 82.8147H397.468C395.637 82.8147 394.933 82.1082 394.933 80.2722V59.8777C394.933 53.8072 392.963 51.1971 388.39 51.1971C385.644 51.1971 382.548 52.2546 380.367 54.0906V80.2722C380.367 82.1082 379.663 82.8147 377.832 82.8147H373.47C371.707 82.8147 370.935 82.1082 370.935 80.2765Z" fill="#2E3080"/>
<path d="M411.173 64.2562C411.173 50.6345 417.437 43.0833 428.834 43.0833C431.648 43.0833 434.466 43.7178 436.436 44.5639V33.4169C436.436 31.581 437.212 30.8745 438.971 30.8745H443.404C445.163 30.8745 445.867 31.581 445.867 33.4169V80.2765C445.867 82.1125 445.163 82.8189 443.404 82.8189H439.958C438.199 82.8189 437.494 82.1125 437.494 80.2765V79.4981C435.242 81.8967 431.019 83.5931 426.447 83.5931C416.589 83.5931 411.173 76.6765 411.173 64.2562ZM436.436 72.7253V52.9654C434.677 51.8359 432.707 51.2013 430.243 51.2013C423.84 51.2013 420.744 55.4359 420.744 64.1166C420.744 71.7397 423.279 75.4793 428.623 75.4793C431.437 75.4751 434.533 74.3456 436.436 72.7253Z" fill="#2E3080"/>
<path d="M452.95 63.6893C452.95 50.2791 459.425 43.0833 471.527 43.0833C480.954 43.0833 486.868 47.7409 486.868 55.0805C486.868 61.9971 482.507 65.5252 473.707 66.1598L462.66 66.9382C463.154 72.7972 466.178 75.4792 472.936 75.4792C476.032 75.4792 479.339 74.8447 482.363 73.6433C484.405 72.7972 485.742 73.2922 485.742 75.1239V78.3686C485.742 79.8492 485.038 80.911 483.489 81.5456C480.887 82.6751 475.888 83.593 471.809 83.593C459.003 83.593 452.95 77.2391 452.95 63.6893ZM470.329 59.81C475.323 59.4589 477.719 58.1179 477.719 55.0805C477.719 52.115 475.327 50.4229 471.387 50.4229C465.9 50.4229 462.803 53.951 462.593 60.3727L470.329 59.81Z" fill="#2E3080"/>
<path d="M493.364 72.1585V33.4169C493.364 31.581 494.136 30.8745 495.899 30.8745H500.261C502.092 30.8745 502.796 31.581 502.796 33.4169V71.1728C502.796 74.1382 503.851 75.4074 506.242 75.4074C507.086 75.4074 507.508 75.2677 507.93 75.2677C509.267 75.2677 509.76 75.9023 509.76 77.4548V80.2088C509.76 81.8332 509.056 82.6074 507.297 83.0304C506.242 83.3139 504.905 83.3816 503.707 83.3816C496.46 83.3816 493.364 80.0607 493.364 72.1585Z" fill="#2E3080"/>
<path d="M514.772 80.2766V48.4474C514.772 46.8949 515.615 46.1884 517.235 46.3999C518.079 46.5395 518.711 46.6115 519.488 46.6115C520.264 46.6115 520.897 46.5395 521.74 46.3999C523.36 46.1884 524.204 46.8949 524.204 48.4474V80.2766C524.204 82.1125 523.499 82.819 521.668 82.819H517.307C515.544 82.8148 514.772 82.1083 514.772 80.2766Z" fill="#2E3080"/>
<path d="M525.676 36.522C525.676 40.1178 523.499 42.0976 519.483 42.0976C515.476 42.0976 513.295 40.1178 513.295 36.522C513.295 32.9939 515.472 31.0183 519.483 31.0183C523.495 31.0183 525.676 32.9939 525.676 36.522Z" fill="#1E9A98"/>
<path d="M532.657 80.2765V46.4041C532.657 44.64 533.433 43.8616 535.192 43.8616H538.571C540.401 43.8616 541.106 44.5681 541.106 46.3322V47.1782C543.919 44.7077 548.496 43.0833 552.786 43.0833C561.724 43.0833 566.086 48.3035 566.086 59.0317V80.2722C566.086 82.1082 565.382 82.8147 563.551 82.8147H559.189C557.359 82.8147 556.654 82.1082 556.654 80.2722V59.8777C556.654 53.8072 554.684 51.1971 550.112 51.1971C547.366 51.1971 544.27 52.2546 542.089 54.0906V80.2722C542.089 82.1082 541.384 82.8147 539.554 82.8147H535.192C533.429 82.8147 532.657 82.1082 532.657 80.2765Z" fill="#2E3080"/>
<path d="M576.328 93.7543C574.919 93.1917 574.358 92.4133 574.358 90.9327V87.688C574.358 85.5009 575.484 85.1456 577.665 85.9959C580.9 87.1973 584.207 87.8995 587.093 87.8995C592.513 87.8995 596.031 85.1456 596.031 81.6894C596.031 79.9253 595.326 78.0894 594.061 76.3972C592.585 76.9599 590.615 77.2433 588.573 77.2433C577.808 77.2433 571.894 71.3166 571.894 60.2373C571.894 49.0861 577.804 43.0875 588.573 43.0875C591.387 43.0875 593.922 43.6501 596.031 44.64C597.651 42.876 598.566 40.545 598.566 37.3004C598.566 35.8197 599.06 35.1133 600.747 35.1133H605.041C606.728 35.1133 607.222 35.7478 607.222 37.4442C607.222 41.0442 605.18 45.9134 601.945 48.735C604.054 51.5566 605.18 55.4401 605.18 60.2373C605.18 65.3179 603.771 69.4806 601.097 72.3065C604.054 75.695 605.602 79.3627 605.602 82.8908C605.602 90.1585 599.199 95.8737 588.362 95.8737C584.068 95.8695 579.352 95.0953 576.328 93.7543ZM596.103 60.2331C596.103 53.8114 593.567 50.7782 588.573 50.7782C583.435 50.7782 580.972 53.8114 580.972 60.2331C580.972 66.6547 583.435 69.5483 588.573 69.5483C593.567 69.5483 596.103 66.6547 596.103 60.2331Z" fill="#2E3080"/>
<path d="M191.523 64.4042C191.523 50.7698 197.441 43.4936 208.64 43.4936C211.669 43.4936 214.697 44.0605 216.811 44.9784V32.7528C216.811 31.3398 217.376 30.7729 218.785 30.7729H220.759C222.168 30.7729 222.733 31.3398 222.733 32.7528V80.7925C222.733 82.2055 222.168 82.7723 220.759 82.7723H219.278C217.869 82.7723 217.304 82.2055 217.304 80.7925V79.5911C214.908 81.922 210.542 83.4788 206.105 83.4788C196.521 83.4788 191.523 76.9091 191.523 64.4042ZM216.811 74.8616V50.4187C214.697 49.2892 212.162 48.7223 209.412 48.7223C201.381 48.7223 197.576 53.7395 197.576 64.4084C197.576 73.804 200.676 78.2543 207.299 78.2543C210.753 78.2501 214.486 76.9091 216.811 74.8616Z" fill="#847CB5"/>
<path d="M230.195 63.9812C230.195 50.6302 236.185 43.4937 247.384 43.4937C255.909 43.4937 261.19 47.8044 261.19 54.7971C261.19 61.1553 256.753 64.8273 248.367 65.4661L236.32 66.3121C236.813 74.6501 240.336 78.1825 248.295 78.1825C251.396 78.1825 254.353 77.6156 257.525 76.3465C259.144 75.712 259.992 76.2069 259.992 77.6199V79.5277C259.992 80.4457 259.642 81.0803 258.794 81.5075C256.681 82.5694 251.678 83.4873 247.806 83.4873C235.902 83.4789 230.195 77.1926 230.195 63.9812ZM246.325 61.0834C252.454 60.6604 255.272 58.7525 255.272 54.7971C255.272 50.6979 252.383 48.367 247.312 48.367C240.34 48.367 236.391 53.1727 236.252 61.7899L246.325 61.0834Z" fill="#847CB5"/>
<path d="M176.7 128.202C174.35 132.267 168.58 132.018 164.901 129.048C173.76 126.273 176.586 116.97 177.927 110.24C177.927 110.24 181.627 119.686 176.7 128.202Z" fill="#2E3080"/>
<path d="M174.291 74.6797C174.333 86.8588 170.322 99.0972 156.727 107.418C141.676 116.632 124.512 115.464 118.387 104.8C117.287 102.892 116.624 100.815 116.359 98.6277C124.39 104.58 138.766 104.677 152.399 98.0312C163.94 92.4006 171.971 83.373 174.291 74.6797Z" fill="#2E3080"/>
<path d="M140.052 80.8433C150.905 77.607 158.869 72.4968 163.674 68.8587C169.786 64.2307 174.169 59.4208 177.126 55.6938C175.611 70.7243 161.662 87.0576 139.567 93.0478C112.802 100.311 85.8985 94.1138 79.3013 78.7577C78.5125 76.9217 78.0527 75.0477 77.8966 73.1483C84.4517 76.8075 93.7359 80.8602 105.37 82.7258C123.445 85.6235 137.327 81.6597 140.052 80.8433Z" fill="#1E9A98"/>
<path d="M167.091 120.338C159.54 126.675 149.927 125.863 144.038 118.997C148.467 119.403 153.356 118.438 158.089 115.909C167.783 110.727 173.313 102.883 174.962 94.0505C176.265 104.06 174.43 114.183 167.091 120.338Z" fill="#1E9A98"/>
<path d="M177.518 42.804C179.054 40.3293 180.15 37.5922 180.648 34.7156C180.652 34.6987 180.652 34.686 180.656 34.6691C180.888 33.6496 181.066 32.5581 181.154 31.3948C181.243 30.1976 181.226 29.0723 181.142 28.0105C181.142 27.9682 181.142 27.9259 181.142 27.8878C181.137 27.8921 181.137 27.8921 181.133 27.8963C180.948 25.6627 180.458 23.7463 179.935 22.2615C179.691 21.4365 179.349 20.6201 178.906 19.8079C178.902 19.7952 178.893 19.7825 178.889 19.774C178.615 19.2706 178.303 18.7714 177.953 18.2765C177.944 18.2638 177.936 18.2511 177.927 18.2384C175.236 14.4649 170.339 10.9072 163.227 7.92482C140.343 -1.6696 103.206 -1.6696 80.3224 7.92482C66.5163 13.7162 60.4589 22.1895 64.3397 30.2103C68.444 38.6752 83.3216 45.8668 103.944 47.5124C118.32 48.6546 135.231 46.7721 145.726 42.381C158.933 36.8392 161.354 27.9513 150.458 21.2377C141.301 15.5987 123.892 13.6866 109.538 16.4067C107.821 16.7324 106.155 17.1216 104.539 17.5827C98.4185 19.3214 94.2931 21.9653 92.9011 25.0112C92.0617 26.8598 92.2979 28.7254 93.538 30.4768C94.542 31.8897 98.2919 32.7781 101.73 32.3043C106.475 31.6486 110.461 31.0267 113.832 29.3727C117.227 27.7059 119.083 25.3877 118.792 23.1921C118.594 21.6988 121.437 20.417 124.989 20.5524C130.823 20.7766 136.391 22.0542 139.938 24.2413C148.32 29.3938 145.114 36.45 132.809 39.957C116.907 44.4919 94.5504 42.7194 83.7181 36.0482C76.8171 31.7967 74.2946 26.6779 76.5935 21.6269C78.884 16.6055 85.7091 12.2652 95.7863 9.40544C119.678 2.62843 145.472 6.68533 160.43 13.7077C161.497 14.2069 162.522 14.7272 163.501 15.2687C168.242 17.8788 171.398 22.7564 171.642 28.1713C171.651 28.3828 171.659 28.5985 171.659 28.8143C171.672 30.8448 171.317 32.6597 170.786 34.2376C169.651 37.6007 167.432 40.5027 164.572 42.5967C154.622 49.8772 143.043 54.6448 130.823 56.3538C130.713 56.3707 130.603 56.3834 130.489 56.4004C125.529 57.0772 107.251 59.1797 85.1143 52.0854C72.6875 48.092 63.2345 42.546 57 38.2606C57.4851 41.3869 58.6282 46.0572 61.64 50.8121C63.572 53.8621 68.0137 59.6831 80.0609 64.9118C80.0609 64.9118 82.634 66.0751 85.2324 66.9466C89.9905 68.643 132.944 83.2377 163.488 58.7567C169.525 53.9129 174.076 48.3458 177.518 42.804Z" fill="#2E3080"/>
</g>
<path d="M-0.0484701 81.909C-0.0548252 92.5341 8.68494 103.06 25.6718 112.887C42.6587 122.713 67.5601 131.648 98.9541 139.179C130.348 146.711 167.62 152.693 208.642 156.784C249.663 160.875 293.632 162.994 338.036 163.02C382.44 163.047 426.411 160.98 467.437 156.939C508.464 152.897 545.743 146.96 577.146 139.465C608.549 131.971 633.461 123.067 650.46 113.261C667.458 103.454 676.21 92.9386 676.217 82.3134L338.084 82.1112L-0.0484701 81.909Z" fill="url(#paint0_linear_14_457)"/>
<defs>
<linearGradient id="paint0_linear_14_457" x1="338.016" y1="174.043" x2="338.006" y2="132.418" gradientUnits="userSpaceOnUse">
<stop stop-color="white"/>
<stop offset="1" stop-color="#E0E1FF" stop-opacity="0"/>
</linearGradient>
<clipPath id="clip0_14_457">
<rect width="550.218" height="130.54" fill="white" transform="translate(57 0.729004)"/>
</clipPath>
</defs>
</svg>
