<svg width="228" height="244" viewBox="0 0 228 244" fill="none" xmlns="http://www.w3.org/2000/svg">
<path d="M227.52 116.295C234.812 181.71 157.514 254.395 99.1753 242.765C46.8188 242.765 0 183.278 0 120.656C0 58.0336 46.8188 0 99.1753 0C167.723 0 227.52 53.6726 227.52 116.295Z" fill="#66C0FE"/>
<path d="M218 122C218 184.408 159.719 235 107.547 235C55.3742 235 0 187.306 0 124.897C0 62.4893 55.3742 9 107.547 9C159.719 9 218 59.5918 218 122Z" fill="url(#paint0_linear_20_159)"/>
<path d="M105.155 159.94C105.155 162.69 107.385 164.92 110.135 164.92C112.886 164.92 115.115 162.69 115.115 159.94V152.777H105.155V159.94H105.155ZM117.266 159.94C117.266 162.69 119.495 164.92 122.246 164.92C124.996 164.92 127.226 162.69 127.226 159.94V152.777H117.266V159.94H117.266Z" fill="white"/>
<path d="M124.817 71.0316C124.936 66.2812 121.182 62.3339 116.431 62.2151C111.681 62.0964 107.733 65.8511 107.615 70.6015C107.496 75.3519 111.251 79.2992 116.001 79.4179C120.751 79.5367 124.699 75.782 124.817 71.0316Z" fill="white"/>
<path d="M116.903 128.038H121.833C122.661 128.038 123.449 128.21 124.164 128.518H132.584L130.443 117.464H128.654L116.903 128.038ZM141.233 117.464C141.454 117.62 142.471 119.077 144.572 119.077C145.952 119.077 147.253 118.397 148.036 117.211C147.442 117.379 146.828 117.464 146.21 117.464H141.233V117.464Z" fill="white"/>
<path d="M72.4529 134.03C76.2533 131.11 76.9676 125.663 74.0483 121.863C71.129 118.062 65.6816 117.348 61.8812 120.267C58.0808 123.187 57.3666 128.634 60.2859 132.434C63.2052 136.235 68.6526 136.949 72.4529 134.03Z" fill="white"/>
<path d="M101.702 139.816C101.737 139.817 101.772 139.817 101.809 139.817C101.76 139.816 101.726 139.816 101.702 139.816ZM108.733 116.855L111.375 114.585L103.157 111.153L102.053 116.855H108.733Z" fill="white"/>
<path d="M146.202 106.335H126.156C125.443 106.336 124.741 106.511 124.11 106.843C126.003 108.558 126.709 111.341 125.669 113.832C124.355 116.978 120.73 118.492 117.554 117.165L113.761 115.581L109.631 119.13H83.9255C81.1933 119.132 78.9801 121.366 78.9819 124.098L78.9894 134.779C78.9912 137.511 81.2078 139.819 83.9398 139.817H101.678L92.1814 134.421L101.242 137.637C101.665 137.787 102.11 137.864 102.558 137.864H121.825C123.997 137.864 125.757 136.104 125.757 133.932C125.757 131.76 123.997 130 121.825 130H103.235L94.8121 127.01L102.558 128.039H113.572L127.79 115.153H146.202C148.637 115.153 150.611 113.179 150.611 110.744C150.611 108.31 148.636 106.335 146.202 106.335Z" fill="white"/>
<path d="M154.213 131.073L126.97 131.043C127.467 131.925 127.728 132.92 127.727 133.931C127.727 137.186 125.088 139.817 121.834 139.817H154.213C156.648 139.817 158.622 137.916 158.622 135.482C158.622 133.047 156.648 131.073 154.213 131.073ZM159.053 142.018H62.3471C60.063 142.018 58.2114 143.87 58.2114 146.154C58.2114 148.438 60.063 150.29 62.3471 150.29H63.7797V160.785C63.7797 163.069 65.6312 164.92 67.9154 164.92C70.1995 164.92 72.0511 163.069 72.0511 160.785V150.29H149.349V160.785C149.349 163.069 151.201 164.92 153.485 164.92C155.769 164.92 157.62 163.069 157.62 160.785V150.29H159.053C161.337 150.29 163.189 148.438 163.189 146.154C163.189 143.87 161.337 142.018 159.053 142.018ZM99.4237 92.869L100.301 105.256C100.355 106.023 100.622 106.759 101.07 107.384C101.519 108.008 102.132 108.496 102.842 108.792L118.354 115.271C120.483 116.16 122.905 115.142 123.783 113.04C124.666 110.925 123.668 108.494 121.553 107.611L108.4 102.118L107.703 92.2826L109.873 100.47L121.917 105.538C123.116 104.559 124.616 104.024 126.165 104.023H127.841L126.764 97.9971L128.91 104.023H139.4L136.818 101.486C135.15 96.8323 133.859 93.1788 132.979 90.6176C131.054 85.0143 127.825 82.1733 123.383 82.1733H109.389C103.588 82.1733 99.0155 87.1058 99.4237 92.869Z" fill="white"/>
<defs>
<linearGradient id="paint0_linear_20_159" x1="183.12" y1="72.7436" x2="28.1305" y2="235.492" gradientUnits="userSpaceOnUse">
<stop stop-color="#23A0F0"/>
<stop offset="1" stop-color="#0D6DF8"/>
</linearGradient>
</defs>
</svg>
