<svg width="228" height="244" viewBox="0 0 228 244" fill="none" xmlns="http://www.w3.org/2000/svg">
<path d="M227.52 116.295C234.812 181.71 157.514 254.395 99.1753 242.765C46.8188 242.765 0 183.278 0 120.656C0 58.0336 46.8188 0 99.1753 0C167.723 0 227.52 53.6726 227.52 116.295Z" fill="#87FEC9"/>
<path d="M218 122C218 184.408 159.719 235 107.547 235C55.3742 235 0 187.306 0 124.897C0 62.4893 55.3742 9 107.547 9C159.719 9 218 59.5918 218 122Z" fill="url(#paint0_linear_20_173)"/>
<path d="M160.226 157.919L138.073 164.842L128.381 150.997H55L57.7691 142.689L125.612 135.767C125.612 135.767 130.128 137.884 132.535 139.92C137.348 143.993 140.842 153.766 140.842 153.766H160.226V157.919Z" fill="white"/>
<circle cx="151.924" cy="137.152" r="11.0764" fill="white"/>
<circle cx="96.5144" cy="90.0764" r="11.0764" fill="white"/>
<rect x="55" y="156.535" width="71.9966" height="5.5382" fill="white"/>
<path d="M124.217 137.152L129.755 120.538" stroke="white" stroke-width="2"/>
<circle cx="129.755" cy="117.767" r="5.5382" fill="white"/>
<path d="M78.5349 120.537C77.2446 126.919 77.1504 137.152 77.1504 137.152L96.5341 134.382L97.9186 123.306C97.9186 123.306 103.292 128.501 107.61 130.229C112.656 132.248 121.456 131.613 121.456 131.613V112.23C121.456 112.23 117.717 111.03 115.918 112.23C113.218 114.029 117.587 117.755 115.918 120.537C115.131 121.848 114.606 122.844 113.149 123.306C110.572 124.123 109.577 121.007 107.61 119.152C104.226 115.961 104.228 112.477 100.688 109.461C98.2877 107.416 96.715 106.419 93.765 105.307C90.1875 103.958 84.0731 103.922 84.0731 103.922C84.0731 103.922 79.8903 113.833 78.5349 120.537Z" fill="white"/>
<defs>
<linearGradient id="paint0_linear_20_173" x1="183.12" y1="72.7436" x2="40.4503" y2="214.453" gradientUnits="userSpaceOnUse">
<stop stop-color="#06E66D"/>
<stop offset="1" stop-color="#04F789"/>
</linearGradient>
</defs>
</svg>
