<svg width="228" height="244" viewBox="0 0 228 244" fill="none" xmlns="http://www.w3.org/2000/svg">
<path d="M227.52 116.295C234.812 181.71 157.514 254.395 99.1753 242.765C46.8188 242.765 0 183.278 0 120.656C0 58.0336 46.8188 0 99.1753 0C167.723 0 227.52 53.6726 227.52 116.295Z" fill="#FFC778"/>
<path d="M218 122C218 184.408 159.719 235 107.547 235C55.3742 235 0 187.306 0 124.897C0 62.4893 55.3742 9 107.547 9C159.719 9 218 59.5918 218 122Z" fill="url(#paint0_linear_20_186)"/>
<path d="M119.532 168.732V164.249L115.322 173.83C117.72 173.371 119.532 171.264 119.532 168.732ZM117.705 142.502L119.532 143.869V141.327C118.989 141.813 118.372 142.21 117.705 142.502ZM107.429 96.6186L107.432 96.0054C107.437 95.1355 108.148 94.4277 109.018 94.4277H109.243V97.9296C110.923 99.4383 112.118 101.475 112.566 103.775C113.025 103.645 113.497 103.566 113.974 103.538L125.182 102.905L133.013 94.9123L126.329 105.01L114.096 105.702C111.711 105.837 109.886 107.88 110.021 110.266C110.155 112.634 112.18 114.475 114.585 114.341L128.864 113.533C129.503 113.497 130.126 113.319 130.689 113.013C131.251 112.707 131.739 112.279 132.116 111.762L139.921 101.049C142.076 98.0911 142.3 94.2818 140.821 91.1851C139.29 87.9773 136.056 85.7759 132.244 85.7759H127.886C125.905 87.4186 123.363 88.4076 120.594 88.4076C117.826 88.4076 115.284 87.4186 113.303 85.7759H109.017C103.463 85.7759 98.9125 90.2457 98.785 95.7782C99.8769 95.4074 101.022 95.2182 102.175 95.2182C104.019 95.2161 105.831 95.6991 107.429 96.6186ZM92.5557 101.39L90.0521 100.296C87.8627 99.3394 85.312 100.339 84.3555 102.528C83.3988 104.718 84.3982 107.268 86.5876 108.225L92.96 111.009C92.0589 109.423 91.5859 107.63 91.5873 105.805C91.5866 104.281 91.917 102.774 92.5557 101.39ZM91.6454 150.611C89.5411 150.958 87.3266 150.182 85.9127 148.407L83.6657 145.585L81.6101 147.214C80.2216 148.31 79.5871 150.163 80.0844 151.92L85.9248 172.752C86.5901 175.125 89.0504 176.495 91.4079 175.834C93.773 175.171 95.1528 172.716 94.4898 170.351L89.4446 152.355L91.6454 150.611ZM113.865 143.475L106.331 146.759C105.624 147.068 104.866 147.243 104.096 147.275L111.482 152.802L104.03 169.762C103.042 172.011 104.064 174.635 106.312 175.624C108.547 176.605 111.179 175.604 112.174 173.341C114.253 168.606 120.936 153.41 121.09 153.034C121.872 151.118 121.212 148.973 119.64 147.796L113.865 143.475ZM77.0998 133.997L87.5426 147.109C88.915 148.832 91.4176 149.107 93.1306 147.742C94.8488 146.374 95.1321 143.872 93.7639 142.154L84.8093 130.91L88.3198 122.817V131.974L95.3935 140.856C96.8369 142.668 97.0732 145.053 96.214 147.041H102.124C100.386 146.547 98.8735 145.309 98.095 143.522C96.7143 140.354 98.1632 136.667 101.331 135.286L108.789 132.036L109.845 126.856L110.587 133.741L102.242 137.377C100.229 138.255 99.308 140.598 100.186 142.611C101.06 144.618 103.4 145.548 105.42 144.668L116.526 139.828C117.32 139.482 117.98 138.885 118.404 138.129C118.829 137.373 118.995 136.499 118.876 135.641L116.696 119.791C116.533 118.613 116.137 117.479 115.529 116.456C115.279 116.415 111.532 117.212 109.078 113.824C107.223 115.423 104.811 116.393 102.176 116.393C98.6585 116.393 95.5384 114.668 93.6116 112.021H90.2383C88.4842 112.02 86.7682 112.533 85.3017 113.495C83.8351 114.457 82.6821 115.828 81.9845 117.437L76.5624 129.936C76.2753 130.598 76.1736 131.326 76.2683 132.041C76.3629 132.756 76.6504 133.432 77.0998 133.997Z" fill="white"/>
<path d="M102.176 114.047C104.471 114.047 106.546 113.108 108.041 111.594C107.942 111.198 107.881 110.794 107.858 110.387C107.732 108.171 108.735 106.152 110.365 104.887C109.909 100.768 106.417 97.5635 102.176 97.5635C97.6239 97.5635 93.9338 101.254 93.9338 105.805C93.9338 110.357 97.6239 114.047 102.176 114.047Z" fill="white"/>
<path d="M120.594 85.9329C125.546 85.9329 129.561 81.9184 129.561 76.9664C129.561 72.0144 125.546 68 120.594 68C115.642 68 111.628 72.0144 111.628 76.9664C111.628 81.9184 115.642 85.9329 120.594 85.9329Z" fill="white"/>
<path d="M118.847 116.33C119.281 117.324 119.577 118.373 119.724 119.447L120.803 127.289H121.907V145.612C124.486 147.745 125.358 151.347 123.999 154.438L121.907 159.201V168.786C121.907 171.653 124.231 173.977 127.098 173.977C129.965 173.977 132.29 171.653 132.29 168.786L132.292 114.708C131.343 115.326 130.249 115.685 129.119 115.75L118.847 116.33Z" fill="white"/>
<defs>
<linearGradient id="paint0_linear_20_186" x1="183.12" y1="72.7436" x2="28.1305" y2="235.492" gradientUnits="userSpaceOnUse">
<stop stop-color="#F97D18"/>
<stop offset="1" stop-color="#F8A71C"/>
</linearGradient>
</defs>
</svg>
