<svg width="228" height="244" viewBox="0 0 228 244" fill="none" xmlns="http://www.w3.org/2000/svg">
<path d="M227.52 116.295C234.812 181.71 157.514 254.395 99.1753 242.765C46.8188 242.765 0 183.278 0 120.656C0 58.0336 46.8188 0 99.1753 0C167.723 0 227.52 53.6726 227.52 116.295Z" fill="#F462CF"/>
<path d="M218 122C218 184.408 159.719 235 107.547 235C55.3742 235 0 187.306 0 124.897C0 62.4893 55.3742 9 107.547 9C159.719 9 218 59.5918 218 122Z" fill="url(#paint0_linear_20_197)"/>
<path d="M83.4201 148.104C72.1513 151.075 55 149.526 55 149.526C55 149.526 74.8665 154.978 87.6831 153.789C98.0058 152.831 113.261 146.684 113.261 146.684C113.261 146.684 127.724 140.771 134.576 133.895C138.493 129.964 143.102 122.527 143.102 122.527L140.26 111.159C140.26 111.159 137.347 107.049 134.576 106.895C132.098 106.758 128.892 109.738 128.892 109.738C128.892 109.738 124.895 120.88 120.366 126.79C115.093 133.669 110.747 136.54 103.314 141C96.2091 145.262 91.1031 146.079 83.4201 148.104Z" fill="white"/>
<path d="M140.892 120.017C140.691 119.214 139.877 118.725 139.073 118.925C138.27 119.126 137.781 119.94 137.981 120.744L140.892 120.017ZM148.79 143.841L147.675 144.845L148.79 143.841ZM139.437 120.381C137.981 120.744 137.981 120.744 137.981 120.744C137.981 120.744 137.981 120.745 137.981 120.745C137.982 120.746 137.982 120.747 137.982 120.748C137.983 120.751 137.984 120.754 137.985 120.759C137.987 120.768 137.991 120.782 137.995 120.8C138.004 120.836 138.018 120.889 138.035 120.957C138.07 121.094 138.122 121.294 138.189 121.55C138.324 122.062 138.521 122.797 138.773 123.695C139.276 125.49 139.999 127.943 140.875 130.569C141.75 133.192 142.786 136.008 143.919 138.523C145.036 141.005 146.303 143.321 147.675 144.845L149.905 142.838C148.857 141.673 147.744 139.711 146.654 137.291C145.579 134.903 144.579 132.19 143.721 129.619C142.864 127.053 142.156 124.649 141.662 122.885C141.415 122.004 141.222 121.285 141.091 120.786C141.025 120.537 140.975 120.344 140.942 120.213C140.925 120.148 140.912 120.098 140.904 120.065C140.9 120.049 140.897 120.036 140.895 120.028C140.894 120.024 140.893 120.022 140.892 120.02C140.892 120.019 140.892 120.018 140.892 120.018C140.892 120.018 140.892 120.017 140.892 120.017C140.892 120.017 140.892 120.017 139.437 120.381ZM147.675 144.845C150.159 147.605 153.815 150.521 156.788 152.713C158.286 153.818 159.632 154.755 160.605 155.417C161.092 155.747 161.485 156.01 161.758 156.19C161.895 156.28 162.001 156.349 162.074 156.397C162.11 156.42 162.138 156.439 162.158 156.451C162.167 156.457 162.175 156.462 162.18 156.465C162.182 156.467 162.184 156.468 162.186 156.469C162.186 156.47 162.187 156.47 162.187 156.47C162.188 156.47 162.188 156.471 162.188 156.471C162.188 156.471 162.188 156.471 163 155.209C163.812 153.948 163.812 153.948 163.812 153.948C163.812 153.948 163.812 153.948 163.812 153.948C163.812 153.948 163.811 153.948 163.811 153.948C163.81 153.947 163.809 153.946 163.807 153.945C163.803 153.942 163.796 153.938 163.788 153.933C163.771 153.922 163.745 153.905 163.711 153.883C163.643 153.839 163.542 153.772 163.411 153.686C163.148 153.512 162.766 153.258 162.292 152.935C161.343 152.291 160.029 151.376 158.568 150.299C155.625 148.128 152.175 145.36 149.905 142.838L147.675 144.845Z" fill="white"/>
<circle cx="131.728" cy="95.526" r="8.52602" fill="white"/>
<defs>
<linearGradient id="paint0_linear_20_197" x1="183.12" y1="72.7436" x2="28.1305" y2="235.492" gradientUnits="userSpaceOnUse">
<stop stop-color="#BE4ED3"/>
<stop offset="1" stop-color="#EE2EB6"/>
</linearGradient>
</defs>
</svg>
